{
  "source": "C:\\Users\\mbnyau\\Desktop\\stuff\\MIUN\\quantitative_research\\video_compression\\videos\\UVG\\Jockey_1920x1080_120fps_420_8bit_YUV.y4m",
  "output": "C:\\Users\\mbnyau\\Desktop\\stuff\\MIUN\\quantitative_research\\video_compression\\compressed_videos\\UVG\\h264\\2\\Jockey_1920x1080_120fps_420_8bit_YUV_h264.mp4",
  "codec": "h264",
  "ok": "[yuv4mpegpipe @ 000001bda76b6140] Stream #0: not enough frames to estimate rate; consider increasing probesize\nInput #0, yuv4mpegpipe, from 'C:\\Users\\mbnyau\\Desktop\\stuff\\MIUN\\quantitative_research\\video_compression\\videos\\UVG\\Jockey_1920x1080_120fps_420_8bit_YUV.y4m':\n  Duration: 00:00:05.00, start: 0.000000, bitrate: 2985989 kb/s\n  Stream #0:0: Video: rawvideo (I420 / 0x30323449), yuv420p(progressive), 1920x1080, 120 fps, 120 tbr, 120 tbn\n[out#0/mp4 @ 000001bda76b7a00] Codec AVOption b:a (set bitrate (in bits/s)) has not been used for any stream. The most likely reason is either wrong type (e.g. a video option with no video streams) or that it is a private option of some decoder which was not actually used for any stream.\nStream mapping:\n  Stream #0:0 -> #0:0 (rawvideo (native) -> h264 (libx264))\nPress [q] to stop, [?] for help\n[libx264 @ 000001bda76bd580] using cpu capabilities: MMX2 SSE2Fast SSSE3 SSE4.2 AVX FMA3 BMI2 AVX2\n[libx264 @ 000001bda76bd580] profile High, level 5.1, 4:2:0, 8-bit\n[libx264 @ 000001bda76bd580] 264 - core 165 r3222 b35605a - H.264/MPEG-4 AVC codec - Copyleft 2003-2025 - http://www.videolan.org/x264.html - options: cabac=1 ref=5 deblock=1:0:0 analyse=0x3:0x113 me=hex subme=8 psy=1 psy_rd=1.00:0.00 mixed_ref=1 me_range=16 chroma_me=1 trellis=2 8x8dct=1 cqm=0 deadzone=21,11 fast_pskip=1 chroma_qp_offset=-2 threads=18 lookahead_threads=3 sliced_threads=0 nr=0 decimate=1 interlaced=0 bluray_compat=0 constrained_intra=0 bframes=3 b_pyramid=2 b_adapt=1 b_bias=0 direct=3 weightb=1 open_gop=0 weightp=2 keyint=250 keyint_min=25 scenecut=40 intra_refresh=0 rc_lookahead=50 rc=cbr mbtree=1 bitrate=2000 ratetol=1.0 qcomp=0.60 qpmin=0 qpmax=69 qpstep=4 vbv_maxrate=2000 vbv_bufsize=2000 nal_hrd=none filler=0 ip_ratio=1.40 aq=1:1.00\nOutput #0, mp4, to 'C:\\Users\\mbnyau\\Desktop\\stuff\\MIUN\\quantitative_research\\video_compression\\compressed_videos\\UVG\\h264\\2\\Jockey_1920x1080_120fps_420_8bit_YUV_h264.mp4':\n  Metadata:\n    encoder         : Lavf62.3.100\n  Stream #0:0: Video: h264 (avc1 / 0x31637661), yuv420p(tv, progressive), 1920x1080, q=2-31, 2000 kb/s, 120 fps, 15360 tbn\n    Metadata:\n      encoder         : Lavc62.11.100 libx264\n    Side data:\n      cpb: bitrate max/min/avg: 2000000/0/2000000 buffer size: 2000000 vbv_delay: N/A\nframe=    1 fps=0.0 q=50.0 size=       0KiB time=-00:00:00.00 bitrate=N/A speed=N/A elapsed=0:00:00.50    \nframe=   57 fps= 56 q=45.0 size=       0KiB time=00:00:00.45 bitrate=   0.8kbits/s speed=0.449x elapsed=0:00:01.02    \nframe=  112 fps= 73 q=45.0 size=       0KiB time=00:00:00.91 bitrate=   0.4kbits/s speed=0.596x elapsed=0:00:01.53    \nframe=  163 fps= 79 q=47.0 size=     256KiB time=00:00:01.34 bitrate=1563.4kbits/s speed=0.653x elapsed=0:00:02.05    \nframe=  215 fps= 84 q=48.0 size=     256KiB time=00:00:01.77 bitrate=1181.7kbits/s speed=0.692x elapsed=0:00:02.56    \nframe=  233 fps= 76 q=48.0 size=     256KiB time=00:00:01.92 bitrate=1089.6kbits/s speed=0.624x elapsed=0:00:03.08    \nframe=  288 fps= 80 q=52.0 size=     512KiB time=00:00:02.38 bitrate=1760.0kbits/s speed=0.662x elapsed=0:00:03.60    \nframe=  341 fps= 83 q=57.0 size=     768KiB time=00:00:02.82 bitrate=2227.2kbits/s speed=0.686x elapsed=0:00:04.11    \nframe=  394 fps= 85 q=52.0 size=     768KiB time=00:00:03.26 bitrate=1926.1kbits/s speed=0.704x elapsed=0:00:04.63    \nframe=  423 fps= 82 q=50.0 size=     768KiB time=00:00:03.50 bitrate=1793.4kbits/s speed=0.68x elapsed=0:00:05.15    \nframe=  440 fps= 78 q=49.0 size=     768KiB time=00:00:03.65 bitrate=1723.8kbits/s speed=0.644x elapsed=0:00:05.67    \nframe=  465 fps= 75 q=48.0 size=     768KiB time=00:00:03.85 bitrate=1630.7kbits/s speed=0.625x elapsed=0:00:06.17    \nframe=  490 fps= 73 q=47.0 size=     768KiB time=00:00:04.06 bitrate=1547.2kbits/s speed=0.608x elapsed=0:00:06.69    \nframe=  525 fps= 73 q=46.0 size=    1024KiB time=00:00:04.35 bitrate=1924.8kbits/s speed=0.605x elapsed=0:00:07.20    \n[mp4 @ 000001bda76b7b00] Starting second pass: moving the moov atom to the beginning of the file\n[out#0/mp4 @ 000001bda76b7a00] video:1171KiB audio:0KiB subtitle:0KiB other streams:0KiB global headers:0KiB muxing overhead: 0.600248%\nframe=  600 fps= 79 q=-1.0 Lsize=    1178KiB time=00:00:04.98 bitrate=1936.9kbits/s speed=0.655x elapsed=0:00:07.60    \n[libx264 @ 000001bda76bd580] frame I:7     Avg QP:45.44  size:  6321\n[libx264 @ 000001bda76bd580] frame P:230   Avg QP:46.43  size:  2624\n[libx264 @ 000001bda76bd580] frame B:363   Avg QP:48.55  size:  1518\n[libx264 @ 000001bda76bd580] consecutive B-frames: 16.2%  5.7% 11.5% 66.7%\n[libx264 @ 000001bda76bd580] mb I  I16..4: 30.3% 69.5%  0.2%\n[libx264 @ 000001bda76bd580] mb P  I16..4:  6.6%  6.1%  0.0%  P16..4: 10.1%  0.2%  0.4%  0.0%  0.0%    skip:76.6%\n[libx264 @ 000001bda76bd580] mb B  I16..4:  0.3%  0.2%  0.0%  B16..8: 16.8%  0.2%  0.0%  direct: 0.6%  skip:81.9%  L0:35.5% L1:64.3% BI: 0.2%\n[libx264 @ 000001bda76bd580] 8x8 transform intra:51.6% inter:97.1%\n[libx264 @ 000001bda76bd580] direct mvs  spatial:97.5% temporal:2.5%\n[libx264 @ 000001bda76bd580] coded y,uvDC,uvAC intra: 1.3% 19.0% 0.5% inter: 0.1% 1.7% 0.0%\n[libx264 @ 000001bda76bd580] i16 v,h,dc,p: 41% 41%  3% 15%\n[libx264 @ 000001bda76bd580] i8 v,h,dc,ddl,ddr,vr,hd,vl,hu: 11%  9% 76%  1%  1%  1%  1%  1%  1%\n[libx264 @ 000001bda76bd580] i4 v,h,dc,ddl,ddr,vr,hd,vl,hu: 33% 12% 20%  9%  9%  5%  4%  5%  3%\n[libx264 @ 000001bda76bd580] i8c dc,h,v,p: 86% 11%  3%  1%\n[libx264 @ 000001bda76bd580] Weighted P-Frames: Y:0.0% UV:0.0%\n[libx264 @ 000001bda76bd580] ref P L0: 54.6%  3.8% 22.6%  8.1%  8.4%  2.5%\n[libx264 @ 000001bda76bd580] ref B L0: 76.5% 15.1%  6.7%  1.8%\n[libx264 @ 000001bda76bd580] ref B L1: 93.3%  6.7%\n[libx264 @ 000001bda76bd580] kb/s:1917.72\n",
  "seconds": 7.668853044509888,
  "probe_out": {}
}